HIERARCHY
ROOT Hips
{
	OFFSET 0.00000 0.00000 0.00000
	CHANNELS 6 Xposition Yposition Zposition Yrotation Zrotation Xrotation 
	JOINT Lumbar
	{
		OFFSET 0 0 0
		CHANNELS 3 Zrotation Xrotation Yrotation
		JOINT Neck
		{
			OFFSET 0.00 0.2701 0.00
			CHANNELS 3 Zrotation Xrotation Yrotation
			End Site
			{
				OFFSET 0.00 0.1379 0.00
			}
		}
		JOINT RightShoulder
		{
			OFFSET 0.0119 0.2289 0.1181
			CHANNELS 3 Zrotation Xrotation Yrotation
			JOINT RightElbow
			{
				OFFSET 0.00 -0.1475 0.00
				CHANNELS 2 Zrotation Yrotation
				JOINT RightWrist
				{
					OFFSET 0.00 -0.1605 0.00
					CHANNELS 2 Zrotation Xrotation
					End Site
					{
						OFFSET 0.0040 -0.1068 0.0006
					}
				}
			}
		}
		JOINT LeftShoulder
		{
			OFFSET 0.0119 0.2289 -0.1181
			CHANNELS 3 Zrotation Xrotation Yrotation
			JOINT LeftElbow
			{
				OFFSET 0.00 -0.1475 0.00
				CHANNELS 2 Zrotation Yrotation
				JOINT LeftWrist
				{
					OFFSET 0.00 -0.1605 0.00
					CHANNELS 2 Zrotation Xrotation
					End Site
					{
						OFFSET 0.0040 -0.1068 -0.0006
					}
				}
			}
		}
	}
	JOINT RightHip
	{
		OFFSET 0.0316 -0.0424 0.0458
		CHANNELS 3 Zrotation Xrotation Yrotation
		JOINT RightKnee
		{
			OFFSET 0.00 -0.2438 0.00
			CHANNELS 1 Zrotation
			JOINT RightAnkle
			{
				OFFSET 0.00 -0.2449 0.00
				CHANNELS 3 Zrotation Xrotation Yrotation
				End Site
				{
					OFFSET 0.1237 -0.0542 0.0051
				}
			}
		}
	}
	JOINT LeftHip
	{
		OFFSET 0.0316 -0.0424 -0.0458
		CHANNELS 3 Zrotation Xrotation Yrotation
		JOINT LeftKnee
		{
			OFFSET 0.00 -0.2438 0.00
			CHANNELS 1 Zrotation
			JOINT LeftAnkle
			{
				OFFSET 0.00 -0.2449 0.00
				CHANNELS 3 Zrotation Xrotation Yrotation
				End Site
				{
					OFFSET 0.1237 -0.0542 -0.0051
				}
			}
		}
	}
}
MOTION
Frames: 16
Frame Time: 0.02
0.0047 0.00043 0.00751 -186.63856 -36.21626 -3.17363 46.28842 2.3439 -6.97845 -11.69139 3.65996 -2.10649 111.43165 -31.32104 35.50722 111.30127 115.20938 -26.38548 -10.17636 -21.34049 29.04653 -19.85201 41.18021 -86.88814 3.32199 -0.3946 43.72658 -0.74926 -11.4378 -22.25344 -6.66728 -1.21784 -2.8455 44.30463 9.11946 6.57499 -27.25665 -6.6346 1.7961 3.11734
0.00434 0.00043 0.008 -186.91427 -36.12652 -3.24831 46.20983 2.34048 -6.99022 -11.82635 3.63121 -2.10651 111.3573 -31.25422 35.52703 111.29278 115.23971 -26.54826 -10.13653 -22.24646 27.3529 -18.64594 39.10152 -86.82998 3.09675 -0.49626 43.60368 -0.71354 -11.19163 -22.22178 -6.66923 -1.22004 -2.84631 44.12805 8.87197 5.64091 -27.23878 -6.6396 1.92423 3.17729
0.00395 0.00043 0.00846 -187.1801 -35.93241 -3.32579 46.0515 2.33202 -6.97667 -12.01793 3.64301 -2.10652 111.23855 -31.25215 35.54559 111.32161 115.18897 -26.68421 -10.06044 -23.25859 25.79825 -17.03667 37.53919 -86.56182 2.6512 -0.59012 43.35729 -0.68439 -11.03113 -22.1829 -6.67523 -1.21285 -2.8424 43.8352 8.56764 4.4336 -27.21009 -6.64781 2.0827 3.25146
0.00356 0.00042 0.00893 -187.45278 -35.79938 -3.40387 45.94483 2.32623 -6.96993 -12.18597 3.64076 -2.10653 111.1288 -31.21914 35.55137 111.33741 115.0509 -26.7622 -9.98255 -24.23003 24.2016 -15.63929 35.80469 -86.39275 2.31775 -0.68424 43.18292 -0.65038 -10.82944 -22.14844 -6.67944 -1.20992 -2.84071 43.61024 8.30002 3.38967 -27.18798 -6.65423 2.22321 3.31723
0.00319 0.00042 0.00941 -187.71728 -35.61172 -3.47459 45.7767 2.31912 -6.98175 -12.34616 3.62021 -2.10654 111.06484 -31.19169 35.61196 111.33608 115.41708 -27.12385 -9.97857 -25.16845 22.51651 -14.11356 33.80425 -86.20145 1.93426 -0.78902 42.94495 -0.62317 -10.63286 -22.10928 -6.68335 -1.20727 -2.83889 43.32478 7.9868 2.18053 -27.15919 -6.66211 2.38141 3.39121
0.00279 0.00041 0.00986 -187.99501 -35.51066 -3.56081 45.7149 2.31338 -6.95 -12.53526 3.64701 -2.10656 110.89695 -31.169 35.56049 111.37923 114.73879 -26.90238 -9.81605 -26.19848 21.04977 -12.76354 32.48002 -86.01923 1.60479 -0.8739 42.80728 -0.58408 -10.44827 -22.07812 -6.68886 -1.20173 -2.83614 43.13523 7.75474 1.25032 -27.14151 -6.66768 2.50991 3.45143
0.00232 0.00041 0.01024 -188.32107 -35.68971 -3.69272 45.9825 2.31365 -6.79663 -12.79444 3.79859 -2.1066 110.43531 -31.13594 35.17793 111.53921 110.9849 -24.96478 -9.19071 -27.48941 20.13439 -11.98145 32.91113 -85.78092 1.44751 -0.86693 42.99485 -0.50715 -10.2689 -22.0713 -6.69796 -1.19025 -2.83202 43.25504 7.76316 1.15973 -27.1585 -6.66629 2.54929 3.4704
0.00183 0.00041 0.01058 -188.65875 -35.95629 -3.83938 46.35633 2.31526 -6.60182 -13.07973 3.99565 -2.10664 109.87416 -31.107 34.68695 111.7421 106.22517 -22.46426 -8.41368 -28.8625 19.43719 -11.39395 34.00229 -85.57698 1.35599 -0.84562 43.28382 -0.41887 -10.1007 -22.07267 -6.70849 -1.17618 -2.8271 43.47201 7.85472 1.35885 -27.18675 -6.66243 2.55765 3.47498
0.00135 0.00041 0.01093 -188.98501 -36.17263 -3.97699 46.67072 2.31558 -6.43087 -13.35039 4.16942 -2.10668 109.36974 -31.08105 34.25956 111.92357 102.06068 -20.29325 -7.728 -30.17722 18.65086 -10.72861 34.78286 -85.45131 1.25603 -0.85861 43.51446 -0.33805 -9.93216 -22.06996 -6.71825 -1.16345 -2.8225 43.63389 7.90661 1.42358 -27.20898 -6.65959 2.58005 3.48601
0.00085 0.00041 0.01129 -189.3375 -36.43007 -4.12482 47.03017 2.3186 -6.2375 -13.63525 4.35593 -2.10672 108.81403 -31.03628 33.77047 112.11491 97.29777 -17.80299 -6.94529 -31.58709 17.82584 -10.00427 35.62811 -84.94706 1.06409 -0.76145 43.7932 -0.24737 -9.74556 -22.0685 -6.72867 -1.14976 -2.81791 43.83848 7.96457 1.49009 -27.23477 -6.65732 2.60384 3.49796
0.00038 0.00041 0.01164 -189.63745 -36.62335 -4.25455 47.32118 2.31637 -6.0817 -13.89533 4.52582 -2.10676 108.34357 -31.03153 33.38566 112.2948 93.55903 -15.85335 -6.33057 -32.81349 17.133 -9.45444 36.48632 -85.21082 1.07446 -0.8811 43.99658 -0.17487 -9.59936 -22.06648 -6.73802 -1.13751 -2.81317 43.97798 8.03028 1.62552 -27.25582 -6.65321 2.61686 3.50434
-2e-05 0.0004 0.01201 -189.79637 -36.62506 -4.33299 47.40521 2.29954 -6.03664 -14.08574 4.64148 -2.10679 108.11989 -31.12975 33.30204 112.43748 92.75629 -15.45473 -6.20404 -33.5421 16.73792 -9.3399 37.23766 -87.86484 1.69648 -1.6859 43.97563 -0.15184 -9.55076 -22.06109 -6.74403 -1.13037 -2.80843 43.92136 8.09814 1.87962 -27.26224 -6.64469 2.6085 3.49919
-0.00039 0.0004 0.01238 -189.90093 -36.55887 -4.3923 47.41604 2.2774 -6.03145 -14.24904 4.73811 -2.10682 107.98777 -31.26867 33.32916 112.5661 93.04083 -15.63222 -6.25392 -34.07741 16.47042 -9.39608 37.97359 -91.24502 2.50914 -2.69601 43.87491 -0.14806 -9.54382 -22.05489 -6.74891 -1.12472 -2.80358 43.79563 8.17104 2.19469 -27.2634 -6.63437 2.59005 3.4888
-0.00077 0.00039 0.01275 -190.02572 -36.51913 -4.45877 47.45495 2.25754 -6.01034 -14.42114 4.84139 -2.10685 107.82289 -31.39332 33.31486 112.69772 92.92411 -15.60127 -6.23222 -34.68163 16.15264 -9.37552 38.7011 -94.10483 3.18895 -3.55512 43.80497 -0.13785 -9.52516 -22.04893 -6.75434 -1.11806 -2.79866 43.69659 8.24114 2.48355 -27.26615 -6.62479 2.57553 3.48055
-0.00117 0.00039 0.01312 -190.16919 -36.49909 -4.53204 47.51754 2.23813 -5.97888 -14.60915 4.95469 -2.10688 107.61845 -31.50162 33.26096 112.84502 92.39802 -15.33507 -6.17088 -35.36837 15.80926 -9.35808 39.51534 -97.74771 4.06152 -4.64879 43.75923 -0.11777 -9.47775 -22.04369 -6.75967 -1.11264 -2.79416 43.61851 8.31611 2.77556 -27.27241 -6.61544 2.56275 3.47286
-0.00153 0.00038 0.01349 -190.26143 -36.42315 -4.58663 47.51441 2.2167 -5.97847 -14.75709 5.04204 -2.10691 107.51784 -31.65192 33.31503 112.95596 92.97357 -15.69079 -6.23354 -35.83669 15.54763 -9.37198 40.13881 -99.9588 4.58267 -5.31353 43.64578 -0.12259 -9.49835 -22.03678 -6.76491 -1.1051 -2.78883 43.48193 8.38126 3.07232 -27.27029 -6.60525 2.54435 3.46292
